<?xml version="1.0" encoding="UTF-8"?>
<svg xmlns="http://www.w3.org/2000/svg" xmlns:xlink="http://www.w3.org/1999/xlink" width="3872.97" height="3872.97" viewBox="0 0 3872.97 3872.97">
<defs>
<clipPath id="clip-0">

</clipPath>
<clipPath id="clip-1">
<path clip-rule="nonzero" d="M 697 697 L 3176 697 L 3176 3176 L 697 3176 Z M 697 697 "/>
</clipPath>
<clipPath id="clip-2">
<path clip-rule="evenodd" d="M 781.355469 3091.761719 L 781.355469 2926.429688 C 781.355469 2835.269531 855.523438 2761.089844 946.695312 2761.089844 L 1066.058594 2761.089844 L 1240.570312 2900.089844 C 1255.730469 2912.171875 1277.191406 2912.328125 1292.53125 2900.480469 L 1472.929688 2761.089844 L 1592.648438 2761.089844 C 1683.820312 2761.089844 1757.988281 2835.269531 1757.988281 2926.429688 L 1757.988281 3091.761719 L 1648.089844 3091.761719 L 1648.089844 2956.050781 C 1648.089844 2932.808594 1629.25 2913.960938 1606 2913.960938 C 1582.75 2913.960938 1563.910156 2932.808594 1563.910156 2956.050781 L 1563.910156 3091.761719 L 975.4375 3091.761719 L 975.4375 2956.050781 C 975.4375 2932.808594 956.597656 2913.960938 933.347656 2913.960938 C 910.097656 2913.960938 891.257812 2932.808594 891.257812 2956.050781 L 891.257812 3091.761719 Z M 1233.53125 1835.300781 C 1043.558594 1835.300781 998.074219 1993.171875 996.226562 1999.890625 C 996.074219 2000.441406 995.855469 2001.199219 995.683594 2001.738281 C 978.261719 2056.488281 981.648438 2114.75 992.542969 2165.949219 C 992.957031 2165.339844 993.375 2164.71875 993.800781 2164.109375 C 1039.488281 2097.808594 1117.21875 2086.949219 1120.511719 2086.519531 C 1122.320312 2086.28125 1124.140625 2086.160156 1125.960938 2086.160156 C 1234.410156 2086.160156 1334.230469 2026.21875 1335.230469 2025.621094 C 1337.808594 2024.050781 1340.550781 2022.761719 1343.410156 2021.78125 C 1363.230469 2014.96875 1382.46875 2011.511719 1400.589844 2011.511719 C 1437.558594 2011.511719 1470.910156 2025.929688 1497.03125 2053.199219 C 1522.460938 2079.769531 1539.128906 2116.640625 1550 2155.078125 C 1580.679688 2026.050781 1561.609375 1982.328125 1551.519531 1969.269531 C 1545.558594 1961.558594 1538.910156 1959.78125 1534.25 1959.691406 C 1516.808594 1963.359375 1502.121094 1954.921875 1492.878906 1939.519531 C 1439.210938 1850.078125 1295.539062 1839.96875 1294.109375 1839.890625 C 1292.871094 1839.828125 1291.628906 1839.699219 1290.398438 1839.53125 C 1283.738281 1838.570312 1277.128906 1837.78125 1270.609375 1837.148438 L 1270.441406 1837.128906 L 1270.339844 1837.121094 L 1270.121094 1837.101562 C 1257.578125 1835.898438 1245.328125 1835.300781 1233.53125 1835.300781 Z M 1485.550781 2330.328125 C 1487.648438 2266.210938 1476.289062 2153.21875 1436.171875 2111.390625 C 1425.761719 2100.53125 1414.78125 2095.699219 1400.578125 2095.699219 C 1392.78125 2095.699219 1384.019531 2097.199219 1374.480469 2100.179688 C 1351.609375 2113.269531 1247.121094 2169.191406 1129.609375 2170.328125 C 1121.019531 2172.078125 1083.820312 2181.238281 1062.671875 2212.511719 C 1044.910156 2238.78125 1041.390625 2276.03125 1052.191406 2323.289062 C 1052.789062 2325.230469 1053.25 2327.238281 1053.570312 2329.300781 L 1082.601562 2460.101562 C 1089.71875 2492.191406 1109.148438 2516.929688 1135.199219 2534.921875 C 1136.351562 2535.621094 1137.460938 2536.371094 1138.53125 2537.171875 C 1175.109375 2561.140625 1223.75 2572.378906 1269.671875 2572.378906 C 1315.640625 2572.378906 1364.351562 2561.109375 1400.941406 2537.078125 C 1401.941406 2536.339844 1402.980469 2535.648438 1404.039062 2535 C 1430.148438 2517 1449.621094 2492.21875 1456.75 2460.101562 Z M 2114.96875 3091.761719 L 2224.871094 3091.761719 L 2224.871094 2956.050781 C 2224.871094 2932.808594 2243.710938 2913.960938 2266.960938 2913.960938 C 2290.210938 2913.960938 2309.050781 2932.808594 2309.050781 2956.050781 L 2309.050781 3091.761719 L 2897.53125 3091.761719 L 2897.53125 2956.050781 C 2897.53125 2932.808594 2916.371094 2913.960938 2939.621094 2913.960938 C 2962.859375 2913.960938 2981.710938 2932.808594 2981.710938 2956.050781 L 2981.710938 3091.761719 L 3091.601562 3091.761719 L 3091.601562 2926.429688 C 3091.601562 2835.269531 3017.441406 2761.089844 2926.269531 2761.089844 L 2806.539062 2761.089844 L 2626.140625 2900.480469 C 2610.800781 2912.320312 2589.351562 2912.171875 2574.179688 2900.089844 L 2399.679688 2761.089844 L 2280.308594 2761.089844 C 2189.140625 2761.089844 2114.96875 2835.269531 2114.96875 2926.429688 Z M 2603.289062 2656.558594 C 2603.28125 2656.558594 2603.28125 2656.558594 2603.28125 2656.558594 C 2560.878906 2656.558594 2516.660156 2648.96875 2476.398438 2633.148438 L 2461.140625 2702.421875 L 2600.808594 2813.671875 L 2745.351562 2702 L 2730.179688 2633.148438 C 2689.921875 2648.96875 2645.691406 2656.558594 2603.289062 2656.558594 Z M 2819.179688 2330.300781 C 2821.269531 2266.179688 2809.921875 2153.21875 2769.789062 2111.390625 C 2759.378906 2100.53125 2748.410156 2095.699219 2734.199219 2095.699219 C 2726.410156 2095.699219 2717.648438 2097.199219 2708.109375 2100.179688 C 2685.230469 2113.269531 2580.75 2169.191406 2463.230469 2170.328125 C 2454.648438 2172.078125 2417.449219 2181.238281 2396.300781 2212.511719 C 2378.539062 2238.78125 2375.011719 2276.03125 2385.820312 2323.289062 C 2386.441406 2325.289062 2386.910156 2327.359375 2387.21875 2329.46875 L 2416.210938 2460.109375 C 2423.320312 2492.160156 2442.730469 2516.898438 2468.75 2534.890625 C 2469.941406 2535.609375 2471.089844 2536.378906 2472.191406 2537.199219 C 2508.761719 2561.140625 2557.378906 2572.378906 2603.28125 2572.378906 C 2649.21875 2572.378906 2697.878906 2561.140625 2734.460938 2537.148438 C 2735.511719 2536.371094 2736.609375 2535.628906 2737.738281 2534.949219 C 2763.800781 2516.949219 2783.25 2492.199219 2790.371094 2460.101562 Z M 1936.480469 964.128906 C 1833.199219 964.128906 1749.171875 1048.160156 1749.171875 1151.441406 C 1749.171875 1254.71875 1833.199219 1338.75 1936.480469 1338.75 C 2039.769531 1338.75 2123.789062 1254.71875 2123.789062 1151.441406 C 2123.789062 1048.160156 2039.769531 964.128906 1936.480469 964.128906 Z M 1936.480469 1422.929688 C 2086.179688 1422.929688 2207.96875 1301.140625 2207.96875 1151.441406 C 2207.96875 1001.738281 2086.179688 879.949219 1936.480469 879.949219 C 1786.78125 879.949219 1664.988281 1001.730469 1664.988281 1151.441406 C 1664.988281 1301.140625 1786.78125 1422.929688 1936.480469 1422.929688 Z M 1614.558594 1607.25 C 1637.351562 1628.21875 1662.191406 1647.011719 1688.730469 1663.261719 C 1690.019531 1664.039062 1691.308594 1664.820312 1692.601562 1665.589844 C 1693.570312 1666.171875 1694.550781 1666.75 1695.53125 1667.320312 C 1758.539062 1704.289062 1829.699219 1726.621094 1903.300781 1731.808594 C 1905.339844 1731.949219 1907.390625 1732.078125 1909.441406 1732.199219 C 1910.890625 1732.289062 1912.339844 1732.359375 1913.789062 1732.429688 C 1916.660156 1732.570312 1919.539062 1732.679688 1922.421875 1732.761719 C 1923.320312 1732.789062 1924.230469 1732.820312 1925.140625 1732.839844 C 1928.640625 1732.929688 1932.148438 1732.96875 1935.671875 1732.980469 L 1937.289062 1732.980469 C 1940.808594 1732.96875 1944.320312 1732.929688 1947.820312 1732.839844 C 1948.730469 1732.820312 1949.640625 1732.789062 1950.539062 1732.761719 C 1953.429688 1732.679688 1956.300781 1732.570312 1959.171875 1732.429688 C 1960.621094 1732.359375 1962.070312 1732.28125 1963.519531 1732.199219 C 1965.589844 1732.078125 1967.648438 1731.949219 1969.71875 1731.808594 C 2043.351562 1726.609375 2114.53125 1704.25 2177.558594 1667.238281 L 2180.140625 1665.71875 C 2181.589844 1664.859375 2183.019531 1663.988281 2184.460938 1663.121094 C 2210.921875 1646.898438 2235.679688 1628.160156 2258.410156 1607.238281 C 2214.21875 1566.660156 2162.640625 1534.628906 2106.820312 1513.191406 C 2055.328125 1543.691406 1996.890625 1559.710938 1936.488281 1559.710938 C 1876.078125 1559.710938 1817.640625 1543.691406 1766.160156 1513.191406 C 1710.328125 1534.628906 1658.75 1566.660156 1614.558594 1607.25 Z M 2596.121094 1836.441406 C 2595.550781 1836.410156 2594.988281 1836.371094 2594.429688 1836.308594 C 2585.121094 1835.640625 2576.011719 1835.300781 2567.140625 1835.300781 C 2377.171875 1835.300781 2331.679688 1993.171875 2329.839844 1999.890625 C 2329.691406 2000.441406 2329.46875 2001.199219 2329.300781 2001.738281 C 2311.960938 2056.238281 2315.378906 2114.480469 2326.289062 2165.75 C 2326.660156 2165.199219 2327.039062 2164.648438 2327.398438 2164.109375 C 2373.101562 2097.808594 2450.828125 2086.949219 2454.109375 2086.519531 C 2455.929688 2086.28125 2457.738281 2086.160156 2459.570312 2086.160156 C 2567.25 2086.160156 2667.890625 2026.191406 2668.898438 2025.578125 C 2671.441406 2024.039062 2674.199219 2022.75 2677.011719 2021.78125 C 2696.828125 2014.96875 2716.070312 2011.511719 2734.199219 2011.511719 C 2771.171875 2011.511719 2804.519531 2025.921875 2830.628906 2053.199219 C 2856.070312 2079.761719 2872.730469 2116.628906 2883.609375 2155.070312 C 2914.289062 2026.050781 2895.210938 1982.320312 2885.121094 1969.261719 C 2879.171875 1961.550781 2872.511719 1959.769531 2867.839844 1959.691406 C 2850.398438 1963.359375 2835.71875 1954.929688 2826.480469 1939.511719 C 2772.351562 1849.300781 2629.050781 1839.960938 2627.609375 1839.871094 C 2626.441406 1839.800781 2625.171875 1839.679688 2624 1839.519531 C 2614.570312 1838.171875 2605.25 1837.148438 2596.121094 1836.441406 Z M 1460.601562 1256.738281 L 1460.601562 1257.621094 C 1460.710938 1365.550781 1496.96875 1465.160156 1557.859375 1545.039062 C 1615.53125 1492.140625 1683.890625 1451.601562 1757.921875 1426.710938 C 1770.441406 1422.511719 1784.210938 1424.410156 1795.101562 1431.878906 C 1836.828125 1460.429688 1885.71875 1475.53125 1936.480469 1475.53125 C 1987.238281 1475.53125 2036.128906 1460.429688 2077.859375 1431.878906 C 2088.761719 1424.421875 2102.519531 1422.511719 2115.050781 1426.710938 C 2189.089844 1451.609375 2257.441406 1492.140625 2315.109375 1545.03125 C 2375.96875 1465.191406 2412.21875 1365.640625 2412.371094 1257.761719 C 2412.359375 1257.351562 2412.359375 1256.941406 2412.359375 1256.539062 C 2412.050781 994.390625 2198.699219 781.210938 1936.480469 781.210938 C 1674.199219 781.210938 1460.789062 994.5 1460.601562 1256.738281 Z M 1242.539062 1751.210938 L 1376.488281 1251.289062 C 1379.621094 945.140625 1629.601562 697.03125 1936.480469 697.03125 C 2243.371094 697.03125 2493.339844 945.140625 2496.46875 1251.300781 L 2631.601562 1755.589844 L 2634.261719 1755.949219 C 2654.75 1757.390625 2807.050781 1771.488281 2885.941406 1877.238281 C 2904.75 1880.691406 2930.738281 1890.601562 2951.75 1917.820312 C 2992.550781 1970.648438 2995.109375 2062.359375 2959.589844 2198.171875 C 2947.308594 2243.570312 2924.578125 2318.578125 2900.121094 2354.089844 L 2872.550781 2478.339844 C 2862.398438 2524.050781 2838.421875 2560.378906 2806.441406 2588 L 2826.019531 2676.910156 L 2926.269531 2676.910156 C 3063.859375 2676.910156 3175.789062 2788.851562 3175.789062 2926.429688 L 3175.789062 3133.859375 C 3175.789062 3157.101562 3156.941406 3175.941406 3133.699219 3175.941406 L 2072.878906 3175.941406 C 2049.628906 3175.941406 2030.789062 3157.101562 2030.789062 3133.851562 L 2030.789062 2926.429688 C 2030.789062 2788.839844 2142.71875 2676.910156 2280.308594 2676.910156 L 2380.558594 2676.910156 L 2400.148438 2588.011719 C 2368.160156 2560.390625 2344.171875 2524.058594 2334.03125 2478.328125 L 2305.761719 2350.910156 C 2286.378906 2315.679688 2197.328125 2140.199219 2248.851562 1976.941406 C 2251.46875 1967.738281 2267.660156 1915.519531 2311 1864 C 2351.691406 1815.628906 2424.378906 1758.550781 2543.429688 1751.789062 L 2462.460938 1449.578125 C 2437.5 1517.570312 2399.699219 1579.421875 2352.039062 1632.171875 C 2351.109375 1633.441406 2350.101562 1634.679688 2349.011719 1635.859375 C 2313.269531 1674.78125 2272.441406 1708.078125 2228.019531 1735.128906 C 2227.25 1735.589844 2226.488281 1736.058594 2225.730469 1736.53125 C 2223.390625 1737.941406 2221.039062 1739.328125 2218.679688 1740.699219 C 2146.25 1783.128906 2063.5 1809.75 1975.179688 1815.808594 C 1972.890625 1815.960938 1970.601562 1816.109375 1968.308594 1816.238281 C 1966.519531 1816.339844 1964.71875 1816.441406 1962.921875 1816.519531 C 1959.109375 1816.710938 1955.289062 1816.859375 1951.46875 1816.960938 L 1950.140625 1816.988281 C 1945.589844 1817.109375 1941.039062 1817.171875 1936.480469 1817.171875 C 1931.921875 1817.171875 1927.371094 1817.101562 1922.820312 1816.988281 L 1921.5 1816.960938 C 1917.671875 1816.859375 1913.851562 1816.710938 1910.039062 1816.519531 C 1908.238281 1816.441406 1906.449219 1816.339844 1904.648438 1816.238281 C 1902.359375 1816.109375 1900.070312 1815.960938 1897.789062 1815.808594 C 1809.511719 1809.75 1726.800781 1783.148438 1654.390625 1740.761719 C 1651.980469 1739.359375 1649.570312 1737.941406 1647.171875 1736.488281 C 1646.449219 1736.058594 1645.738281 1735.609375 1645.019531 1735.179688 C 1600.570312 1708.121094 1559.710938 1674.800781 1523.949219 1635.859375 C 1522.859375 1634.679688 1521.851562 1633.441406 1520.929688 1632.171875 C 1473.261719 1579.421875 1435.460938 1517.558594 1410.5 1449.570312 L 1327.578125 1759.039062 C 1379.78125 1766.851562 1489.398438 1792.898438 1552.320312 1877.238281 C 1571.128906 1880.691406 1597.121094 1890.601562 1618.128906 1917.820312 C 1658.929688 1970.648438 1661.488281 2062.359375 1625.96875 2198.171875 C 1613.691406 2243.570312 1590.960938 2318.589844 1566.5 2354.089844 L 1538.929688 2478.339844 C 1528.789062 2524.058594 1504.808594 2560.390625 1472.820312 2588.011719 L 1492.398438 2676.910156 L 1592.648438 2676.910156 C 1730.230469 2676.910156 1842.171875 2788.851562 1842.171875 2926.429688 L 1842.171875 3133.859375 C 1842.171875 3157.101562 1823.328125 3175.941406 1800.078125 3175.941406 L 739.269531 3175.941406 C 716.023438 3175.941406 697.175781 3157.101562 697.175781 3133.851562 L 697.175781 2926.429688 C 697.175781 2788.839844 809.105469 2676.910156 946.695312 2676.910156 L 1046.949219 2676.910156 L 1066.539062 2588.011719 C 1034.550781 2560.390625 1010.558594 2524.058594 1000.421875 2478.328125 L 972.132812 2350.898438 C 952.742188 2315.640625 863.722656 2140.179688 915.234375 1976.941406 C 917.855469 1967.738281 934.050781 1915.519531 977.390625 1864 C 1020.710938 1812.5 1100.308594 1751.121094 1233.53125 1751.121094 C 1236.511719 1751.121094 1239.519531 1751.148438 1242.539062 1751.210938 Z M 1411.730469 2702 L 1396.558594 2633.148438 C 1356.308594 2648.96875 1312.078125 2656.558594 1269.679688 2656.558594 C 1269.671875 2656.558594 1269.679688 2656.558594 1269.679688 2656.558594 C 1227.269531 2656.558594 1183.039062 2648.96875 1142.789062 2633.148438 L 1127.53125 2702.421875 L 1267.191406 2813.671875 L 1411.730469 2702 "/>
</clipPath>
<linearGradient id="linear-pattern-0" gradientUnits="userSpaceOnUse" x1="-0.000000000000000056" y1="0" x2="0.999997" y2="0" gradientTransform="matrix(2478.62, 0, 0, 2478.62, 697.177, 1936.48)">
<stop offset="0" stop-color="rgb(94.508362%, 95.684814%, 98.03772%)" stop-opacity="1"/>
<stop offset="0.0078125" stop-color="rgb(94.314575%, 95.552063%, 97.976685%)" stop-opacity="1"/>
<stop offset="0.015625" stop-color="rgb(93.928528%, 95.285034%, 97.854614%)" stop-opacity="1"/>
<stop offset="0.0234375" stop-color="rgb(93.54248%, 95.018005%, 97.732544%)" stop-opacity="1"/>
<stop offset="0.03125" stop-color="rgb(93.156433%, 94.752502%, 97.608948%)" stop-opacity="1"/>
<stop offset="0.0390625" stop-color="rgb(92.771912%, 94.485474%, 97.486877%)" stop-opacity="1"/>
<stop offset="0.046875" stop-color="rgb(92.385864%, 94.218445%, 97.364807%)" stop-opacity="1"/>
<stop offset="0.0546875" stop-color="rgb(91.999817%, 93.952942%, 97.241211%)" stop-opacity="1"/>
<stop offset="0.0625" stop-color="rgb(91.61377%, 93.685913%, 97.119141%)" stop-opacity="1"/>
<stop offset="0.0703125" stop-color="rgb(91.227722%, 93.418884%, 96.99707%)" stop-opacity="1"/>
<stop offset="0.078125" stop-color="rgb(90.841675%, 93.153381%, 96.873474%)" stop-opacity="1"/>
<stop offset="0.0859375" stop-color="rgb(90.455627%, 92.886353%, 96.751404%)" stop-opacity="1"/>
<stop offset="0.09375" stop-color="rgb(90.06958%, 92.619324%, 96.629333%)" stop-opacity="1"/>
<stop offset="0.101563" stop-color="rgb(89.683533%, 92.353821%, 96.505737%)" stop-opacity="1"/>
<stop offset="0.109375" stop-color="rgb(89.297485%, 92.086792%, 96.383667%)" stop-opacity="1"/>
<stop offset="0.117188" stop-color="rgb(88.911438%, 91.819763%, 96.261597%)" stop-opacity="1"/>
<stop offset="0.125" stop-color="rgb(88.525391%, 91.55426%, 96.138%)" stop-opacity="1"/>
<stop offset="0.132812" stop-color="rgb(88.139343%, 91.287231%, 96.01593%)" stop-opacity="1"/>
<stop offset="0.140625" stop-color="rgb(87.753296%, 91.020203%, 95.89386%)" stop-opacity="1"/>
<stop offset="0.148438" stop-color="rgb(87.367249%, 90.7547%, 95.77179%)" stop-opacity="1"/>
<stop offset="0.15625" stop-color="rgb(86.981201%, 90.487671%, 95.648193%)" stop-opacity="1"/>
<stop offset="0.164062" stop-color="rgb(86.595154%, 90.220642%, 95.526123%)" stop-opacity="1"/>
<stop offset="0.171875" stop-color="rgb(86.209106%, 89.953613%, 95.404053%)" stop-opacity="1"/>
<stop offset="0.179688" stop-color="rgb(85.823059%, 89.68811%, 95.280457%)" stop-opacity="1"/>
<stop offset="0.1875" stop-color="rgb(85.437012%, 89.421082%, 95.158386%)" stop-opacity="1"/>
<stop offset="0.195313" stop-color="rgb(85.050964%, 89.154053%, 95.036316%)" stop-opacity="1"/>
<stop offset="0.203125" stop-color="rgb(84.664917%, 88.88855%, 94.91272%)" stop-opacity="1"/>
<stop offset="0.210938" stop-color="rgb(84.27887%, 88.621521%, 94.790649%)" stop-opacity="1"/>
<stop offset="0.21875" stop-color="rgb(83.892822%, 88.354492%, 94.668579%)" stop-opacity="1"/>
<stop offset="0.226563" stop-color="rgb(83.506775%, 88.088989%, 94.544983%)" stop-opacity="1"/>
<stop offset="0.234375" stop-color="rgb(83.120728%, 87.82196%, 94.422913%)" stop-opacity="1"/>
<stop offset="0.242188" stop-color="rgb(82.73468%, 87.554932%, 94.300842%)" stop-opacity="1"/>
<stop offset="0.25" stop-color="rgb(82.348633%, 87.289429%, 94.177246%)" stop-opacity="1"/>
<stop offset="0.257812" stop-color="rgb(81.962585%, 87.0224%, 94.055176%)" stop-opacity="1"/>
<stop offset="0.265625" stop-color="rgb(81.576538%, 86.755371%, 93.933105%)" stop-opacity="1"/>
<stop offset="0.273438" stop-color="rgb(81.190491%, 86.489868%, 93.809509%)" stop-opacity="1"/>
<stop offset="0.28125" stop-color="rgb(80.804443%, 86.222839%, 93.687439%)" stop-opacity="1"/>
<stop offset="0.289062" stop-color="rgb(80.418396%, 85.955811%, 93.565369%)" stop-opacity="1"/>
<stop offset="0.296875" stop-color="rgb(80.032349%, 85.690308%, 93.443298%)" stop-opacity="1"/>
<stop offset="0.304688" stop-color="rgb(79.646301%, 85.423279%, 93.319702%)" stop-opacity="1"/>
<stop offset="0.3125" stop-color="rgb(79.260254%, 85.15625%, 93.197632%)" stop-opacity="1"/>
<stop offset="0.320313" stop-color="rgb(78.874207%, 84.890747%, 93.075562%)" stop-opacity="1"/>
<stop offset="0.328125" stop-color="rgb(78.488159%, 84.623718%, 92.951965%)" stop-opacity="1"/>
<stop offset="0.335938" stop-color="rgb(78.102112%, 84.356689%, 92.829895%)" stop-opacity="1"/>
<stop offset="0.34375" stop-color="rgb(77.716064%, 84.089661%, 92.707825%)" stop-opacity="1"/>
<stop offset="0.351563" stop-color="rgb(77.330017%, 83.824158%, 92.584229%)" stop-opacity="1"/>
<stop offset="0.359375" stop-color="rgb(76.94397%, 83.557129%, 92.462158%)" stop-opacity="1"/>
<stop offset="0.367188" stop-color="rgb(76.557922%, 83.2901%, 92.340088%)" stop-opacity="1"/>
<stop offset="0.375" stop-color="rgb(76.171875%, 83.024597%, 92.216492%)" stop-opacity="1"/>
<stop offset="0.382812" stop-color="rgb(75.785828%, 82.757568%, 92.094421%)" stop-opacity="1"/>
<stop offset="0.390625" stop-color="rgb(75.39978%, 82.49054%, 91.972351%)" stop-opacity="1"/>
<stop offset="0.398438" stop-color="rgb(75.013733%, 82.225037%, 91.848755%)" stop-opacity="1"/>
<stop offset="0.40625" stop-color="rgb(74.627686%, 81.958008%, 91.726685%)" stop-opacity="1"/>
<stop offset="0.414063" stop-color="rgb(74.241638%, 81.690979%, 91.604614%)" stop-opacity="1"/>
<stop offset="0.421875" stop-color="rgb(73.855591%, 81.425476%, 91.482544%)" stop-opacity="1"/>
<stop offset="0.429688" stop-color="rgb(73.469543%, 81.158447%, 91.358948%)" stop-opacity="1"/>
<stop offset="0.4375" stop-color="rgb(73.083496%, 80.891418%, 91.236877%)" stop-opacity="1"/>
<stop offset="0.445313" stop-color="rgb(72.697449%, 80.625916%, 91.114807%)" stop-opacity="1"/>
<stop offset="0.453125" stop-color="rgb(72.311401%, 80.358887%, 90.991211%)" stop-opacity="1"/>
<stop offset="0.460938" stop-color="rgb(71.925354%, 80.091858%, 90.869141%)" stop-opacity="1"/>
<stop offset="0.46875" stop-color="rgb(71.539307%, 79.826355%, 90.74707%)" stop-opacity="1"/>
<stop offset="0.476562" stop-color="rgb(71.153259%, 79.559326%, 90.623474%)" stop-opacity="1"/>
<stop offset="0.484375" stop-color="rgb(70.767212%, 79.292297%, 90.501404%)" stop-opacity="1"/>
<stop offset="0.492188" stop-color="rgb(70.381165%, 79.025269%, 90.379333%)" stop-opacity="1"/>
<stop offset="0.5" stop-color="rgb(69.995117%, 78.759766%, 90.255737%)" stop-opacity="1"/>
<stop offset="0.507812" stop-color="rgb(69.60907%, 78.492737%, 90.133667%)" stop-opacity="1"/>
<stop offset="0.515625" stop-color="rgb(69.223022%, 78.225708%, 90.011597%)" stop-opacity="1"/>
<stop offset="0.523438" stop-color="rgb(68.836975%, 77.960205%, 89.888%)" stop-opacity="1"/>
<stop offset="0.53125" stop-color="rgb(68.450928%, 77.693176%, 89.76593%)" stop-opacity="1"/>
<stop offset="0.539062" stop-color="rgb(68.06488%, 77.426147%, 89.64386%)" stop-opacity="1"/>
<stop offset="0.546875" stop-color="rgb(67.678833%, 77.160645%, 89.52179%)" stop-opacity="1"/>
<stop offset="0.554688" stop-color="rgb(67.292786%, 76.893616%, 89.398193%)" stop-opacity="1"/>
<stop offset="0.5625" stop-color="rgb(66.906738%, 76.626587%, 89.276123%)" stop-opacity="1"/>
<stop offset="0.570312" stop-color="rgb(66.520691%, 76.361084%, 89.154053%)" stop-opacity="1"/>
<stop offset="0.578125" stop-color="rgb(66.134644%, 76.094055%, 89.030457%)" stop-opacity="1"/>
<stop offset="0.585937" stop-color="rgb(65.748596%, 75.827026%, 88.908386%)" stop-opacity="1"/>
<stop offset="0.59375" stop-color="rgb(65.362549%, 75.561523%, 88.786316%)" stop-opacity="1"/>
<stop offset="0.601562" stop-color="rgb(64.976501%, 75.294495%, 88.66272%)" stop-opacity="1"/>
<stop offset="0.609375" stop-color="rgb(64.590454%, 75.027466%, 88.540649%)" stop-opacity="1"/>
<stop offset="0.617187" stop-color="rgb(64.204407%, 74.761963%, 88.418579%)" stop-opacity="1"/>
<stop offset="0.625" stop-color="rgb(63.818359%, 74.494934%, 88.294983%)" stop-opacity="1"/>
<stop offset="0.632812" stop-color="rgb(63.432312%, 74.227905%, 88.172913%)" stop-opacity="1"/>
<stop offset="0.640625" stop-color="rgb(63.046265%, 73.962402%, 88.050842%)" stop-opacity="1"/>
<stop offset="0.648438" stop-color="rgb(62.660217%, 73.695374%, 87.927246%)" stop-opacity="1"/>
<stop offset="0.65625" stop-color="rgb(62.27417%, 73.428345%, 87.805176%)" stop-opacity="1"/>
<stop offset="0.664062" stop-color="rgb(61.888123%, 73.161316%, 87.683105%)" stop-opacity="1"/>
<stop offset="0.671875" stop-color="rgb(61.503601%, 72.895813%, 87.559509%)" stop-opacity="1"/>
<stop offset="0.679688" stop-color="rgb(61.117554%, 72.628784%, 87.437439%)" stop-opacity="1"/>
<stop offset="0.6875" stop-color="rgb(60.731506%, 72.361755%, 87.315369%)" stop-opacity="1"/>
<stop offset="0.695312" stop-color="rgb(60.345459%, 72.096252%, 87.193298%)" stop-opacity="1"/>
<stop offset="0.703125" stop-color="rgb(59.959412%, 71.829224%, 87.069702%)" stop-opacity="1"/>
<stop offset="0.710938" stop-color="rgb(59.573364%, 71.562195%, 86.947632%)" stop-opacity="1"/>
<stop offset="0.71875" stop-color="rgb(59.187317%, 71.296692%, 86.825562%)" stop-opacity="1"/>
<stop offset="0.726563" stop-color="rgb(58.80127%, 71.029663%, 86.701965%)" stop-opacity="1"/>
<stop offset="0.734375" stop-color="rgb(58.415222%, 70.762634%, 86.579895%)" stop-opacity="1"/>
<stop offset="0.742188" stop-color="rgb(58.029175%, 70.497131%, 86.457825%)" stop-opacity="1"/>
<stop offset="0.75" stop-color="rgb(57.643127%, 70.230103%, 86.334229%)" stop-opacity="1"/>
<stop offset="0.757812" stop-color="rgb(57.25708%, 69.963074%, 86.212158%)" stop-opacity="1"/>
<stop offset="0.765625" stop-color="rgb(56.871033%, 69.697571%, 86.090088%)" stop-opacity="1"/>
<stop offset="0.773437" stop-color="rgb(56.484985%, 69.430542%, 85.966492%)" stop-opacity="1"/>
<stop offset="0.78125" stop-color="rgb(56.098938%, 69.163513%, 85.844421%)" stop-opacity="1"/>
<stop offset="0.789062" stop-color="rgb(55.712891%, 68.89801%, 85.722351%)" stop-opacity="1"/>
<stop offset="0.796875" stop-color="rgb(55.326843%, 68.630981%, 85.598755%)" stop-opacity="1"/>
<stop offset="0.804688" stop-color="rgb(54.940796%, 68.363953%, 85.476685%)" stop-opacity="1"/>
<stop offset="0.8125" stop-color="rgb(54.554749%, 68.09845%, 85.354614%)" stop-opacity="1"/>
<stop offset="0.820312" stop-color="rgb(54.168701%, 67.831421%, 85.232544%)" stop-opacity="1"/>
<stop offset="0.828125" stop-color="rgb(53.782654%, 67.564392%, 85.108948%)" stop-opacity="1"/>
<stop offset="0.835938" stop-color="rgb(53.396606%, 67.297363%, 84.986877%)" stop-opacity="1"/>
<stop offset="0.84375" stop-color="rgb(53.010559%, 67.03186%, 84.864807%)" stop-opacity="1"/>
<stop offset="0.851562" stop-color="rgb(52.624512%, 66.764832%, 84.741211%)" stop-opacity="1"/>
<stop offset="0.859375" stop-color="rgb(52.238464%, 66.497803%, 84.619141%)" stop-opacity="1"/>
<stop offset="0.867188" stop-color="rgb(51.852417%, 66.2323%, 84.49707%)" stop-opacity="1"/>
<stop offset="0.875" stop-color="rgb(51.46637%, 65.965271%, 84.373474%)" stop-opacity="1"/>
<stop offset="0.882813" stop-color="rgb(51.080322%, 65.698242%, 84.251404%)" stop-opacity="1"/>
<stop offset="0.890625" stop-color="rgb(50.694275%, 65.432739%, 84.129333%)" stop-opacity="1"/>
<stop offset="0.898438" stop-color="rgb(50.308228%, 65.16571%, 84.005737%)" stop-opacity="1"/>
<stop offset="0.90625" stop-color="rgb(49.92218%, 64.898682%, 83.883667%)" stop-opacity="1"/>
<stop offset="0.914063" stop-color="rgb(49.536133%, 64.633179%, 83.761597%)" stop-opacity="1"/>
<stop offset="0.921875" stop-color="rgb(49.150085%, 64.36615%, 83.638%)" stop-opacity="1"/>
<stop offset="0.929688" stop-color="rgb(48.764038%, 64.099121%, 83.51593%)" stop-opacity="1"/>
<stop offset="0.9375" stop-color="rgb(48.377991%, 63.833618%, 83.39386%)" stop-opacity="1"/>
<stop offset="0.945312" stop-color="rgb(47.991943%, 63.566589%, 83.27179%)" stop-opacity="1"/>
<stop offset="0.953125" stop-color="rgb(47.605896%, 63.299561%, 83.148193%)" stop-opacity="1"/>
<stop offset="0.960938" stop-color="rgb(47.219849%, 63.034058%, 83.026123%)" stop-opacity="1"/>
<stop offset="0.96875" stop-color="rgb(46.833801%, 62.767029%, 82.904053%)" stop-opacity="1"/>
<stop offset="0.976562" stop-color="rgb(46.447754%, 62.5%, 82.780457%)" stop-opacity="1"/>
<stop offset="0.984375" stop-color="rgb(46.061707%, 62.234497%, 82.658386%)" stop-opacity="1"/>
<stop offset="0.992188" stop-color="rgb(45.675659%, 61.967468%, 82.536316%)" stop-opacity="1"/>
<stop offset="1" stop-color="rgb(45.289612%, 61.700439%, 82.41272%)" stop-opacity="1"/>
</linearGradient>
</defs>
<g clip-path="url(#clip-0)">
<path fill-rule="evenodd" fill="rgb(20.776367%, 43.138123%, 77.34375%)" fill-opacity="1" d="M 1936.480469 0 C 3001.550781 0 3872.96875 871.421875 3872.96875 1936.480469 C 3872.96875 3001.550781 3001.550781 3872.96875 1936.480469 3872.96875 C 871.417969 3872.96875 0 3001.550781 0 1936.480469 C 0 871.421875 871.417969 0 1936.480469 0 "/>
</g>
<g clip-path="url(#clip-1)">
<g clip-path="url(#clip-2)">
<path fill-rule="nonzero" fill="#FFFFFF" d="M 697.175781 697.03125 L 697.175781 3175.941406 L 3175.789062 3175.941406 L 3175.789062 697.03125 Z M 697.175781 697.03125 "/>
</g>
</g>
</svg>
